<svg width="40" height="21" viewBox="0 0 40 21" fill="none" xmlns="http://www.w3.org/2000/svg">
<path d="M20 1.04813C30.7125 1.04813 38.95 5.55259 38.95 10.5C38.95 15.4474 30.7063 19.9519 20 19.9519C9.2875 19.9519 1.05 15.4474 1.05 10.5C1.05 5.55259 9.29375 1.04813 20 1.04813ZM20 0C8.95625 0 0 4.69786 0 10.5C0 16.3021 8.95625 21 20 21C31.0437 21 40 16.3021 40 10.5C40 4.69786 31.0437 0 20 0ZM13.6375 9.65775C13.1437 12.1845 11.4 11.9225 9.25625 11.9225L10.1125 7.51783C12.4875 7.51783 14.1 7.26203 13.6375 9.65775ZM6.0875 16.3832H8.38125L8.925 13.5882C11.4938 13.5882 13.0875 13.7754 14.5625 12.3966C16.1938 10.8993 16.6188 8.23529 15.4563 6.90018C14.85 6.20143 13.875 5.85829 12.55 5.85829H8.13125L6.0875 16.3832ZM17.6938 3.05704H19.975L19.4312 5.85205C21.4 5.85205 23.225 5.70856 24.1063 6.51961C25.0313 7.36809 24.5875 8.45365 23.5875 13.5758H21.275C22.2375 8.6221 22.4188 8.21034 22.0688 7.83601C21.7313 7.47415 20.9625 7.54902 19.1063 7.54902L17.9312 13.5758H15.65L17.6938 3.05704ZM31.5625 9.65775C31.0625 12.2219 29.2687 11.9225 27.1812 11.9225L28.0375 7.51783C30.425 7.51783 32.025 7.26203 31.5625 9.65775ZM24.0125 16.3832H26.3125L26.8563 13.5882C29.5563 13.5882 31.05 13.7442 32.4938 12.3966C34.125 10.8993 34.55 8.23529 33.3875 6.90018C32.7813 6.20143 31.8063 5.85829 30.4813 5.85829H26.0625L24.0125 16.3832Z" fill="#FFF7EE"/>
</svg>
